<svg id="Capa_1" enable-background="new 0 0 511 511" height="512" viewBox="0 0 511 511" width="512" xmlns="http://www.w3.org/2000/svg"><g><path d="m333.469 450.766-26.016-30.5h-14.971v-30.001h-15v30.001h-44.982v-59.961h44.982v14.96h15v-14.96h172.513v-269.308h-104.995v-45.763h-150.51v30.409l-20.296 15.354h-144.19v269.308h172.496v59.961h-14.954l-26.016 30.5h-176.53v15h511v-15zm-18.969-180.453h-59.5v-29.938h59.5zm-74.5-44.937v44.938h-15.51v-14.938h-15v14.938h-44.49v-134.44h44.49v74.502h15v-120.5h120.51v180.438h-15.5v-44.938zm105-165.142v14.642h-120.51v-14.642zm-135.51 60.64h-34.927l34.927-26.422zm-40.124-14.877-19.108 14.455h-90.254v-14.455zm-109.362 209.707h14.996v-15h-14.996v-165.252h89.996v149.861h59.49 7.5 143.01v-149.861h30v-15h-30v-14.455h89.996v14.455h-14.996v15h14.995v165.252h-359.995v15h359.995v29.601h-389.991zm149.463 119.562h91.065l13.221 15.5h-117.507z"/><path d="m405 120.452h15v15h-15z"/><path d="m75 150.265h15v15h-15z"/><path d="m75 180.134h15v30.131h-15z"/><path d="m209.49 225.375h15v15.501h-15z"/><path d="m179.745 150.376h15v15h-15z"/><path d="m179.745 180.376h15v15h-15z"/><path d="m179.745 210.376h15v15h-15z"/><path d="m179.745 240.376h15v15h-15z"/><path d="m314.5 195.594h15v15h-15z"/><path d="m239.5 195.594h60v15h-60z"/><path d="m299.5 165.812h30v15h-30z"/><path d="m239.5 165.812h45.25v15h-45.25z"/><path d="m284.5 136.029h45v15h-45z"/><path d="m239.5 136.029h30v15h-30z"/><path d="m269.5 105.246h60v15h-60z"/><path d="m239.5 105.246h15v15h-15z"/></g></svg>